<?xml version="1.0" encoding="utf-8"?>
<!-- Generator: Adobe Illustrator 18.0.0, SVG Export Plug-In . SVG Version: 6.00 Build 0)  -->
<!DOCTYPE svg PUBLIC "-//W3C//DTD SVG 1.1//EN" "http://www.w3.org/Graphics/SVG/1.1/DTD/svg11.dtd">
<svg version="1.1" id="Calque_1" xmlns="http://www.w3.org/2000/svg" xmlns:xlink="http://www.w3.org/1999/xlink" x="0px" y="0px"
	 viewBox="0 0 500 150" enable-background="new 0 0 500 150" xml:space="preserve">
<g>
	<path fill="#FDFDFD" d="M382,29h-1.6l-0.6-0.5c2-2.3,3.1-5.2,3.1-8.5c0-7.2-5.8-13-13-13c-7.2,0-13,5.8-13,13s5.8,13,13,13
		c3.2,0,6.2-1.2,8.5-3.1l0.5,0.6V32l10,10l3-3L382,29z M370,29c-5,0-9-4-9-9s4-9,9-9c5,0,9,4,9,9S375,29,370,29z"/>
	<path fill="none" d="M351,1h48v48h-48V1z"/>
	<path fill="#FDFDFD" d="M375,21h-4v4h-2v-4h-4v-2h4v-4h2v4h4V21z"/>
</g>
<g>
	<path fill="none" d="M301,1h48v48h-48V1z"/>
	<path fill="#FDFDFD" d="M332,29h-1.6l-0.6-0.5c2-2.3,3.1-5.2,3.1-8.5c0-7.2-5.8-13-13-13s-13,5.8-13,13s5.8,13,13,13
		c3.2,0,6.2-1.2,8.5-3.1l0.5,0.6V32l10,10l3-3L332,29z M320,29c-5,0-9-4-9-9s4-9,9-9s9,4,9,9S325,29,320,29z M315,19h10v2h-10V19z"
		/>
</g>
<g>
	<g>
		<path fill="#FDFDFD" d="M227,35v4h-4v-4H227 M229,33h-8v8h8V33L229,33z"/>
	</g>
	<g>
		<path fill="#FDFDFD" d="M215,23v4h-4v-4H215 M217,21h-8v8h8V21L217,21z"/>
	</g>
	<rect x="221" y="21" fill="#FDFDFD" width="8" height="8"/>
	<g>
		<path fill="#FDFDFD" d="M239,23v4h-4v-4H239 M241,21h-8v8h8V21L241,21z"/>
	</g>
	<g>
		<path fill="#FDFDFD" d="M227,11v4h-4v-4H227 M229,9h-8v8h8V9L229,9z"/>
	</g>
	<path fill="none" d="M201,1h48v48h-48V1z"/>
</g>
<g>
	<rect x="271" y="33" fill="#FDFDFD" width="8" height="8"/>
	<rect x="259" y="21" fill="#FDFDFD" width="8" height="8"/>
	<rect x="271" y="21" fill="#FDFDFD" width="8" height="8"/>
	<rect x="283" y="21" fill="#FDFDFD" width="8" height="8"/>
	<rect x="271" y="9" fill="#FDFDFD" width="8" height="8"/>
	<path fill="none" d="M251,1h48v48h-48V1z"/>
</g>
<g>
	<rect x="112.5" y="39" fill="#FDFDFD" width="25" height="4"/>
	<path fill="#FDFDFD" d="M107,35.5V43h7.5l22.1-22.1l-7.5-7.5L107,35.5z M142.4,15.1c0.8-0.8,0.8-2,0-2.8l-4.7-4.7
		c-0.8-0.8-2-0.8-2.8,0l-3.7,3.7l7.5,7.5L142.4,15.1z"/>
	<path fill="none" d="M101,1h48v48h-48V1z"/>
</g>
<g>
	<rect x="163.5" y="39" fill="#FDFDFD" width="25" height="4"/>
	<path fill="#FDFDFD" d="M193,14.5V7h-7.5l-22.1,22.1l7.5,7.5L193,14.5z M157.6,34.9c-0.8,0.8-0.8,2,0,2.8l4.7,4.7
		c0.8,0.8,2,0.8,2.8,0l3.7-3.7l-7.5-7.5L157.6,34.9z"/>
	<path fill="none" d="M199,49h-48V1h48V49z"/>
</g>
<g>
	<path fill="none" d="M1,1h48v48H1V1z"/>
	<path fill="#FDFDFD" d="M35,7H11c-2.2,0-4,1.8-4,4v28c0,2.2,1.8,4,4,4h28c2.2,0,4-1.8,4-4V15L35,7z M25,39c-3.3,0-6-2.7-6-6
		c0-3.3,2.7-6,6-6s6,2.7,6,6C31,36.3,28.3,39,25,39z M31,19H11v-8h20V19z"/>
</g>
<g>
	<path fill="#FDFDFD" d="M71,9H59c-2.2,0-4,1.8-4,4l0,24c0,2.2,1.8,4,4,4h32c2.2,0,4-1.8,4-4V17c0-2.2-1.8-4-4-4H75L71,9z"/>
	<path fill="none" d="M51,1h48v48H51V1z"/>
</g>
<g>
	<path fill="#FDFDFD" d="M434.6,25.9L415.8,7.1l-3,3l5,5l-10.9,10.9c-1.2,1.2-1.2,3.2,0,4.5L418.5,42c0.6,0.6,1.4,0.9,2.2,0.9
		c0.8,0,1.6-0.3,2.2-0.9l11.6-11.6C435.9,29.2,435.9,27.2,434.6,25.9z M410.7,28.2l10.1-10.1l10.1,10.1H410.7z M439.8,31.3
		c0,0-4.2,4.6-4.2,7.4c0,2.3,1.9,4.2,4.2,4.2s4.2-1.9,4.2-4.2C444,35.9,439.8,31.3,439.8,31.3z"/>
	<path fill="none" d="M401,1h48v48h-48V1z"/>
</g>
<g>
	<path fill="#FDFDFD" d="M463,39c0,2.2,1.8,4,4,4h16c2.2,0,4-1.8,4-4V15h-24V39z M489,9h-7l-2-2h-10l-2,2h-7v4h28V9z"/>
	<path fill="none" d="M451,1h48v48h-48V1z"/>
</g>
<g>
	<path fill="#448AFF" d="M382,79h-1.6l-0.6-0.5c2-2.3,3.1-5.2,3.1-8.5c0-7.2-5.8-13-13-13c-7.2,0-13,5.8-13,13s5.8,13,13,13
		c3.2,0,6.2-1.2,8.5-3.1l0.5,0.6V82l10,10l3-3L382,79z M370,79c-5,0-9-4-9-9s4-9,9-9c5,0,9,4,9,9S375,79,370,79z"/>
	<path fill="none" d="M351,51h48v48h-48V51z"/>
	<path fill="#448AFF" d="M375,71h-4v4h-2v-4h-4v-2h4v-4h2v4h4V71z"/>
</g>
<g>
	<path fill="none" d="M301,51h48v48h-48V51z"/>
	<path fill="#448AFF" d="M332,79h-1.6l-0.6-0.5c2-2.3,3.1-5.2,3.1-8.5c0-7.2-5.8-13-13-13s-13,5.8-13,13s5.8,13,13,13
		c3.2,0,6.2-1.2,8.5-3.1l0.5,0.6V82l10,10l3-3L332,79z M320,79c-5,0-9-4-9-9s4-9,9-9s9,4,9,9S325,79,320,79z M315,69h10v2h-10V69z"
		/>
</g>
<g>
	<g>
		<path fill="#448AFF" d="M227,85v4h-4v-4H227 M229,83h-8v8h8V83L229,83z"/>
	</g>
	<g>
		<path fill="#448AFF" d="M215,73v4h-4v-4H215 M217,71h-8v8h8V71L217,71z"/>
	</g>
	<rect x="221" y="71" fill="#448AFF" width="8" height="8"/>
	<g>
		<path fill="#448AFF" d="M239,73v4h-4v-4H239 M241,71h-8v8h8V71L241,71z"/>
	</g>
	<g>
		<path fill="#448AFF" d="M227,61v4h-4v-4H227 M229,59h-8v8h8V59L229,59z"/>
	</g>
	<path fill="none" d="M201,51h48v48h-48V51z"/>
</g>
<g>
	<rect x="271" y="83" fill="#448AFF" width="8" height="8"/>
	<rect x="259" y="71" fill="#448AFF" width="8" height="8"/>
	<rect x="271" y="71" fill="#448AFF" width="8" height="8"/>
	<rect x="283" y="71" fill="#448AFF" width="8" height="8"/>
	<rect x="271" y="59" fill="#448AFF" width="8" height="8"/>
	<path fill="none" d="M251,51h48v48h-48V51z"/>
</g>
<g>
	<rect x="112.5" y="89" fill="#448AFF" width="25" height="4"/>
	<path fill="#448AFF" d="M107,85.5V93h7.5l22.1-22.1l-7.5-7.5L107,85.5z M142.4,65.1c0.8-0.8,0.8-2,0-2.8l-4.7-4.7
		c-0.8-0.8-2-0.8-2.8,0l-3.7,3.7l7.5,7.5L142.4,65.1z"/>
	<path fill="none" d="M101,51h48v48h-48V51z"/>
</g>
<g>
	<rect x="163.5" y="89" fill="#448AFF" width="25" height="4"/>
	<path fill="#448AFF" d="M193,64.5V57h-7.5l-22.1,22.1l7.5,7.5L193,64.5z M157.6,84.9c-0.8,0.8-0.8,2,0,2.8l4.7,4.7
		c0.8,0.8,2,0.8,2.8,0l3.7-3.7l-7.5-7.5L157.6,84.9z"/>
	<path fill="none" d="M199,99h-48V51h48V99z"/>
</g>
<g>
	<path fill="none" d="M1,51h48v48H1V51z"/>
	<path fill="#448AFF" d="M35,57H11c-2.2,0-4,1.8-4,4v28c0,2.2,1.8,4,4,4h28c2.2,0,4-1.8,4-4V65L35,57z M25,89c-3.3,0-6-2.7-6-6
		c0-3.3,2.7-6,6-6s6,2.7,6,6C31,86.3,28.3,89,25,89z M31,69H11v-8h20V69z"/>
</g>
<g>
	<path fill="#448AFF" d="M71,59H59c-2.2,0-4,1.8-4,4l0,24c0,2.2,1.8,4,4,4h32c2.2,0,4-1.8,4-4V67c0-2.2-1.8-4-4-4H75L71,59z"/>
	<path fill="none" d="M51,51h48v48H51V51z"/>
</g>
<g>
	<path fill="#448AFF" d="M434.6,75.9l-18.9-18.9l-3,3l5,5l-10.9,10.9c-1.2,1.2-1.2,3.2,0,4.5L418.5,92c0.6,0.6,1.4,0.9,2.2,0.9
		c0.8,0,1.6-0.3,2.2-0.9l11.6-11.6C435.9,79.2,435.9,77.2,434.6,75.9z M410.7,78.2l10.1-10.1l10.1,10.1H410.7z M439.8,81.3
		c0,0-4.2,4.6-4.2,7.4c0,2.3,1.9,4.2,4.2,4.2s4.2-1.9,4.2-4.2C444,85.9,439.8,81.3,439.8,81.3z"/>
	<path fill="none" d="M401,51h48v48h-48V51z"/>
</g>
<g>
	<path fill="#448AFF" d="M463,89c0,2.2,1.8,4,4,4h16c2.2,0,4-1.8,4-4V65h-24V89z M489,59h-7l-2-2h-10l-2,2h-7v4h28V59z"/>
	<path fill="none" d="M451,51h48v48h-48V51z"/>
</g>
<g>
	<path fill="#FFCDD2" d="M382,129h-1.6l-0.6-0.5c2-2.3,3.1-5.2,3.1-8.5c0-7.2-5.8-13-13-13c-7.2,0-13,5.8-13,13s5.8,13,13,13
		c3.2,0,6.2-1.2,8.5-3.1l0.5,0.6v1.6l10,10l3-3L382,129z M370,129c-5,0-9-4-9-9s4-9,9-9c5,0,9,4,9,9S375,129,370,129z"/>
	<path fill="none" d="M351,101h48v48h-48V101z"/>
	<path fill="#FFCDD2" d="M375,121h-4v4h-2v-4h-4v-2h4v-4h2v4h4V121z"/>
</g>
<g>
	<path fill="none" d="M301,101h48v48h-48V101z"/>
	<path fill="#FFCDD2" d="M332,129h-1.6l-0.6-0.5c2-2.3,3.1-5.2,3.1-8.5c0-7.2-5.8-13-13-13s-13,5.8-13,13s5.8,13,13,13
		c3.2,0,6.2-1.2,8.5-3.1l0.5,0.6v1.6l10,10l3-3L332,129z M320,129c-5,0-9-4-9-9s4-9,9-9s9,4,9,9S325,129,320,129z M315,119h10v2h-10
		V119z"/>
</g>
<g>
	<g>
		<path fill="#FFCDD2" d="M227,135v4h-4v-4H227 M229,133h-8v8h8V133L229,133z"/>
	</g>
	<g>
		<path fill="#FFCDD2" d="M215,123v4h-4v-4H215 M217,121h-8v8h8V121L217,121z"/>
	</g>
	<rect x="221" y="121" fill="#FFCDD2" width="8" height="8"/>
	<g>
		<path fill="#FFCDD2" d="M239,123v4h-4v-4H239 M241,121h-8v8h8V121L241,121z"/>
	</g>
	<g>
		<path fill="#FFCDD2" d="M227,111v4h-4v-4H227 M229,109h-8v8h8V109L229,109z"/>
	</g>
	<path fill="none" d="M201,101h48v48h-48V101z"/>
</g>
<g>
	<rect x="271" y="133" fill="#FFCDD2" width="8" height="8"/>
	<rect x="259" y="121" fill="#FFCDD2" width="8" height="8"/>
	<rect x="271" y="121" fill="#FFCDD2" width="8" height="8"/>
	<rect x="283" y="121" fill="#FFCDD2" width="8" height="8"/>
	<rect x="271" y="109" fill="#FFCDD2" width="8" height="8"/>
	<path fill="none" d="M251,101h48v48h-48V101z"/>
</g>
<g>
	<rect x="112.5" y="139" fill="#FFCDD2" width="25" height="4"/>
	<path fill="#FFCDD2" d="M107,135.5v7.5h7.5l22.1-22.1l-7.5-7.5L107,135.5z M142.4,115.1c0.8-0.8,0.8-2,0-2.8l-4.7-4.7
		c-0.8-0.8-2-0.8-2.8,0l-3.7,3.7l7.5,7.5L142.4,115.1z"/>
	<path fill="none" d="M101,101h48v48h-48V101z"/>
</g>
<g>
	<rect x="163.5" y="139" fill="#FFCDD2" width="25" height="4"/>
	<path fill="#FFCDD2" d="M193,114.5V107h-7.5l-22.1,22.1l7.5,7.5L193,114.5z M157.6,134.9c-0.8,0.8-0.8,2,0,2.8l4.7,4.7
		c0.8,0.8,2,0.8,2.8,0l3.7-3.7l-7.5-7.5L157.6,134.9z"/>
	<path fill="none" d="M199,149h-48v-48h48V149z"/>
</g>
<g>
	<path fill="none" d="M1,101h48v48H1V101z"/>
	<path fill="#FFCDD2" d="M35,107H11c-2.2,0-4,1.8-4,4v28c0,2.2,1.8,4,4,4h28c2.2,0,4-1.8,4-4v-24L35,107z M25,139c-3.3,0-6-2.7-6-6
		c0-3.3,2.7-6,6-6s6,2.7,6,6C31,136.3,28.3,139,25,139z M31,119H11v-8h20V119z"/>
</g>
<g>
	<path fill="#FFCDD2" d="M71,109H59c-2.2,0-4,1.8-4,4l0,24c0,2.2,1.8,4,4,4h32c2.2,0,4-1.8,4-4v-20c0-2.2-1.8-4-4-4H75L71,109z"/>
	<path fill="none" d="M51,101h48v48H51V101z"/>
</g>
<g>
	<path fill="#FFCDD2" d="M434.6,125.9l-18.9-18.9l-3,3l5,5l-10.9,10.9c-1.2,1.2-1.2,3.3,0,4.5l11.6,11.6c0.6,0.6,1.4,0.9,2.2,0.9
		c0.8,0,1.6-0.3,2.2-0.9l11.6-11.6C435.9,129.2,435.9,127.2,434.6,125.9z M410.7,128.2l10.1-10.1l10.1,10.1H410.7z M439.8,131.3
		c0,0-4.2,4.6-4.2,7.4c0,2.3,1.9,4.2,4.2,4.2s4.2-1.9,4.2-4.2C444,135.9,439.8,131.3,439.8,131.3z"/>
	<path fill="none" d="M401,101h48v48h-48V101z"/>
</g>
<g>
	<path fill="#FFCDD2" d="M463,139c0,2.2,1.8,4,4,4h16c2.2,0,4-1.8,4-4v-24h-24V139z M489,109h-7l-2-2h-10l-2,2h-7v4h28V109z"/>
	<path fill="none" d="M451,101h48v48h-48V101z"/>
</g>
</svg>
