<?xml version="1.0" encoding="utf-8"?>
<!-- Generator: Adobe Illustrator 18.0.0, SVG Export Plug-In . SVG Version: 6.00 Build 0)  -->
<!DOCTYPE svg PUBLIC "-//W3C//DTD SVG 1.1//EN" "http://www.w3.org/Graphics/SVG/1.1/DTD/svg11.dtd">
<svg version="1.1" id="Calque_1" xmlns="http://www.w3.org/2000/svg" xmlns:xlink="http://www.w3.org/1999/xlink" x="0px" y="0px"
	 viewBox="0 0 110 100" enable-background="new 0 0 110 100" xml:space="preserve">
<g>
	<path fill="none" d="M31,1h48v48H31V1z"/>
	<path fill="#FDFDFD" d="M59,5H43c-2.2,0-4,1.8-4,4l0,32c0,2.2,1.8,4,4,4h24c2.2,0,4-1.8,4-4V17L59,5z M63,33h-6v6h-4v-6h-6v-4h6v-6
		h4v6h6V33z M57,19V8l11,11H57z"/>
</g>
<g>
	<path fill="none" d="M31,51h48v48H31V51z"/>
	<path fill="#FFCDD2" d="M59,55H43c-2.2,0-4,1.8-4,4l0,32c0,2.2,1.8,4,4,4h24c2.2,0,4-1.8,4-4V67L59,55z M63,83h-6v6h-4v-6h-6v-4h6
		v-6h4v6h6V83z M57,69V58l11,11H57z"/>
</g>
</svg>
