<?xml version="1.0" encoding="utf-8"?>
<!-- Generator: Adobe Illustrator 18.0.0, SVG Export Plug-In . SVG Version: 6.00 Build 0)  -->
<!DOCTYPE svg PUBLIC "-//W3C//DTD SVG 1.1//EN" "http://www.w3.org/Graphics/SVG/1.1/DTD/svg11.dtd">
<svg version="1.1" id="Calque_1" xmlns="http://www.w3.org/2000/svg" xmlns:xlink="http://www.w3.org/1999/xlink" x="0px" y="0px"
	 viewBox="0 0 100 100" enable-background="new 0 0 100 100" xml:space="preserve">
<g>
	<g>
		<path fill="#F44336" d="M39.6,20.8c-3.5,0-6.2,2.8-6.2,6.2c0,3.5,2.8,6.2,6.2,6.2s6.2-2.8,6.2-6.2C45.8,23.6,43,20.8,39.6,20.8z"
			/>
		<path fill="#F44336" d="M27.1,37.5c-3.5,0-6.2,2.8-6.2,6.2s2.8,6.2,6.2,6.2s6.2-2.8,6.2-6.2S30.5,37.5,27.1,37.5z"/>
		<path fill="#F44336" d="M60.4,20.8c-3.5,0-6.2,2.8-6.2,6.2c0,3.5,2.8,6.2,6.2,6.2s6.2-2.8,6.2-6.2C66.7,23.6,63.9,20.8,60.4,20.8z
			"/>
		<path fill="#F44336" d="M72.9,37.5c-3.5,0-6.2,2.8-6.2,6.2s2.8,6.2,6.2,6.2s6.2-2.8,6.2-6.2S76.4,37.5,72.9,37.5z"/>
	</g>
	<path fill="#F44336" d="M0,0v100h100V0H0z M66.7,66.7h-7.4c-3.5,0-6.2,2.8-6.2,6.2c0,1.6,0.6,3,1.6,4.1c1,1.1,1.6,2.6,1.6,4.2
		c0,3.5-2.8,6.2-6.2,6.2c-20.7,0-37.5-16.8-37.5-37.5c0-20.7,16.8-37.5,37.5-37.5s37.5,14.9,37.5,33.3
		C87.5,57.3,78.2,66.7,66.7,66.7z"/>
</g>
</svg>
