<svg viewBox="0 0 1237.19 10099.94" xmlns="http://www.w3.org/2000/svg"><path d="m1092.43.19s-699.92 255.57-608.37 817.2 760.43 631 754.78 1064.15c-7.32 561.63-626.21 491.89-776.35 950.73-142.89 436.73 501.69 638.73 783.67 1431.61 174.32 490.16 86.91 763.3-135.49 1112.25-168.46 264.3-323.67 301.01-400.59 814.87-80.45 537.62 481.15 407.46 572.7 1394.9 55.13 594.65-337.32 704.52-611.56 1178.73-193.22 334.16-135.49 1047.31 534.66 1335.31h-1065.51s-249.16-227.13 512.63-1497.25c178.3-297.29 234.35-711.45 150.08-1046.13-72.09-286.32-446.77-576.31-439.44-1204s744-824 787.33-1251.73c51.27-506.57-168.45-734.16-468.74-1024.15-299.59-289.32-542-375.89-501.7-906.68 34.88-459.85 444.15-781.27 484.11-1207.62 21.75-232.12-121.57-598.41-235.09-774.61s-322.28-433.69-139.18-1187.77z" fill="#37b7ec" fill-rule="evenodd" opacity=".5" transform="translate(-101.41)"/></svg>